<?xml version="1.0" encoding="utf-8"?>
<svg id="master-artboard" viewBox="0 0 240 240" version="1.1" xmlns="http://www.w3.org/2000/svg" x="0px" y="0px" style="enable-background:new 0 0 1400 980;" width="240px" height="240px"><rect id="ee-background" x="0" y="0" width="240" height="240" style="fill: white; fill-opacity: 0; pointer-events: none;"/><g transform="matrix(0.2343749701976776, 0, 0, 0.2343749701976776, 0, 0)"><g>
  <title>Layer 1</title>
  
  <path fill="#0096ff" opacity="NaN" d="m322.88888,577.53418c-39.74652,-0.93171 -69.99907,33.87456 -74.999,56.06824c-4.99993,22.19368 -3.74995,204.41546 -14.9998,225.44105c-11.24985,21.02559 -37.4995,26.86603 -54.99927,29.20221c-17.49977,2.33618 -29.9996,8.17662 -13.74982,18.68941c16.24978,10.5128 39.29943,11.02671 69.99907,7.00853c30.69963,-4.01818 54.54928,-10.55938 63.74915,-43.21927c9.19987,-32.65989 12.01907,-166.38154 12.49983,-189.23032" id="svg_8" stroke="null" style="fill: rgb(102, 204, 255);"/>
  <path fill="#0096ff" d="m395.55998,165.62722c-61.05224,0 -122.10448,16.842 -175.78835,65.26274c-53.68387,48.42074 -66.31537,114.73611 -68.42062,145.26223c-2.10525,30.52612 -9.47362,124.20973 52.63124,169.4726c62.10487,45.26287 192.63035,39.99974 192.00205,39.37145c0.6283,0.6283 161.6799,-1.47695 206.94277,-37.2662c45.26287,-35.78925 45.26287,-117.89398 38.94712,-168.41998c-6.31575,-50.52599 -30.52612,-131.57811 -89.47311,-170.52523c-58.94699,-38.94712 -112.63086,-39.99974 -156.8411,-43.15762l0,0.00001z" id="svg_6" style="fill: rgb(102, 204, 255);"/>
  <path fill="#fff" stroke="#000" opacity="NaN" d="m309.23904,695.48388" id="svg_9"/>
  <path fill="#0096ff" opacity="undefined" d="m307.8336,689.99302c9.74347,-52.13847 23.90993,-52.07824 92.65901,-54.5436c68.74908,-2.46536 90.47956,24.37682 93.74875,50.5398c3.26919,26.16298 2.18676,172.85433 5.75677,185.64808c3.57001,12.79375 11.743,48.56076 80.49208,46.0954c68.74908,-2.46536 74.999,-24.65356 74.50585,-25.13987c0.49315,0.48631 9.24303,-9.37511 -22.00655,-13.07315c-31.24958,-3.69803 -66.24912,1.23268 -68.74908,-28.3516c-2.49997,-29.58427 -8.48619,-179.71096 -9.24303,-197.71481c-0.75684,-18.00385 -2.00682,-77.1724 -83.25573,-87.03383c-81.24892,-9.86142 -164.9978,-1.23268 -165.49095,-1.719" id="svg_10" stroke="null" style="fill: rgb(102, 204, 255);"/>
  <path fill="#fff" stroke="#000" opacity="NaN" d="m265.63373,208.00771" id="svg_11"/>
  <path fill="#0096ff" d="m288.73389,211.64411c-79.75229,-56.34881 -96.67598,-58.18244 -114.25343,-58.18244c-17.57745,0 -37.35208,70.90985 8.78873,143.6379c46.14081,72.72805 185.217,-29.10665 105.46471,-85.45546l-0.00001,0z" id="svg_12" stroke="null" style="fill: rgb(102, 204, 255);"/>
  <path fill="#0096ff" d="m498.95898,198.9167c79.81784,-56.34881 96.75544,-58.18244 114.34734,-58.18244c17.5919,0 37.38279,70.90985 -8.79594,143.6379c-46.17874,72.72805 -185.36924,-29.10665 -105.5514,-85.45546z" id="svg_13" stroke="null" style="fill: rgb(102, 204, 255);"/>
  <path fill="#fff" stroke="#000" opacity="NaN" d="m336.54358,628.01221" id="svg_14"/>
  <path fill="#0096ff" d="m333.8283,631.13963l-2.86928,242.74828c-2.99264,17.94196 -33.39264,22.85135 -46.49726,37.83061c-13.10462,14.97925 45.14732,22.46888 76.37578,10.32189c31.22846,-12.14699 26.4427,-34.42723 28.58077,-69.04329c2.13808,-34.61606 4.27615,-221.85748 4.0688,-222.49161c0.20736,0.63412 -36.13996,-18.24737 -59.65881,0.63412z" id="svg_15" stroke="null" style="fill: rgb(102, 204, 255);"/>
  <path fill="#0096ff" d="m468.37807,627.66187l3.02816,247.71649c5.15835,22.97584 35.24168,23.31904 49.07193,38.60486c13.83026,15.28582 -47.64724,22.92874 -80.6049,10.53313c-32.95766,-12.3956 -27.90689,-35.13183 -30.16336,-70.45636c-2.25647,-35.32453 -4.51294,-226.39812 -4.2941,-227.04522c-0.21884,0.6471 38.14112,-18.62083 62.96227,0.6471z" id="svg_16" stroke="null" style="fill: rgb(102, 204, 255);"/>
  <path d="M 949.242004 494.869507 A 144.374207 144.374207 0 0 1 804.867798 639.243713 A 144.374207 144.374207 0 0 1 660.493591 494.869507 A 144.374207 144.374207 0 0 1 804.867798 350.4953 A 144.374207 144.374207 0 0 1 949.242004 494.869507 Z" fill="#0096ff" id="svg_18" style="fill: rgb(102, 204, 255);"/>
  <path d="M 595.749542 482.994568 A 83.749542 83.749542 0 0 1 512 566.74411 A 83.749542 83.749542 0 0 1 428.250458 482.994568 A 83.749542 83.749542 0 0 1 512 399.245026 A 83.749542 83.749542 0 0 1 595.749542 482.994568 Z" fill="none" id="svg_21" stroke="null"/>
  <path d="M 903.247826 492.994537 A 96.249474 96.249474 0 0 1 806.998352 589.244011 A 96.249474 96.249474 0 0 1 710.748878 492.994537 A 96.249474 96.249474 0 0 1 806.998352 396.745064 A 96.249474 96.249474 0 0 1 903.247826 492.994537 Z" fill="#ffffff" id="svg_22" stroke="null"/>
  <path fill="#0096ff" stroke="null" d="m529.24432,627.99378c12.49993,19.99989 39.99978,21.24988 83.74954,27.49985c43.74976,6.24997 34.14048,-3.42681 39.50257,-10.49716c5.36208,-7.07035 20.86884,-24.36754 45.86871,-23.11755c24.99986,1.24999 39.62804,16.1148 35.87807,37.36469c-3.74998,21.24988 -20.20261,30.81059 -33.74982,38.74979c-13.54721,7.9392 -24.99986,16.24991 -56.24969,16.24991c-31.24983,0 -101.24945,-4.99997 -108.74941,-19.99989c-7.49996,-14.99992 -18.7499,-86.24953 -6.24997,-66.24964z" id="svg_24" style="fill: rgb(102, 204, 255);"/>
  <path d="M 346.82309 399.764221 A 43.529388 65.882317 0 0 1 303.293701 465.646538 A 43.529388 65.882317 0 0 1 259.764313 399.764221 A 43.529388 65.882317 0 0 1 303.293701 333.881905 A 43.529388 65.882317 0 0 1 346.82309 399.764221 Z" fill="#ffffff" stroke="null" id="svg_25"/>
  <path d="M 332.705433 399.175995 A 28.235279 41.764679 0 0 1 304.470154 440.940674 A 28.235279 41.764679 0 0 1 276.234875 399.175995 A 28.235279 41.764679 0 0 1 304.470154 357.411316 A 28.235279 41.764679 0 0 1 332.705433 399.175995 Z" fill="#0096ff" id="svg_26" stroke="null" style="fill: rgb(102, 204, 255);"/>
  <path d="M 532.705353 398.587769 A 43.529388 65.882317 0 0 1 489.175964 464.470085 A 43.529388 65.882317 0 0 1 445.646576 398.587769 A 43.529388 65.882317 0 0 1 489.175964 332.705452 A 43.529388 65.882317 0 0 1 532.705353 398.587769 Z" fill="#ffffff" stroke="null" id="svg_27"/>
  <path fill="#0096ff" stroke="null" opacity="undefined" d="m490.35243,439.76421c-15.5996,0 -28.23528,-18.69027 -28.23528,-41.76468c0,-23.07441 12.63568,-41.76468 28.23528,-41.76468c15.5996,0 28.23528,18.69027 28.23528,41.76468c0,23.07441 -12.63568,41.76468 -28.23528,41.76468z" id="svg_28" style="fill: rgb(102, 204, 255);"/>
 <path fill="#0096ff" d="m734.59488,576.4141l-80.62778,94.10794c0.6283,0.62829 -17.62715,21.50038 -1.47695,35.36492c16.15019,13.86453 30.62296,-5.76789 34.10833,-7.99667c3.48537,-2.22878 77.10909,-94.79975 81.74392,-99.63854" id="svg_7" style="fill: rgb(102, 204, 255);"/></g></g></svg>